<svg xmlns="http://www.w3.org/2000/svg" xmlns:xlink="http://www.w3.org/1999/xlink" width="2000" zoomAndPan="magnify" viewBox="0 0 1500 1499.999933" height="2000" preserveAspectRatio="xMidYMid meet" version="1.0"><defs><g/><clipPath id="c9532fe112"><path d="M 229 150 L 1267 150 L 1267 925.5 L 229 925.5 Z M 229 150 " clip-rule="nonzero"/></clipPath><clipPath id="0e0259461f"><rect x="0" width="1143" y="0" height="709"/></clipPath></defs><g clip-path="url(#c9532fe112)"><path fill="#ffffff" d="M 414.710938 936.847656 L 509.425781 772.78125 C 526.445312 743.285156 555.6875 726.421875 589.726562 726.421875 L 696.683594 726.421875 L 575.195312 936.847656 Z M 753.714844 936.847656 L 888.582031 703.273438 C 905.601562 673.777344 934.84375 656.914062 968.882812 656.914062 L 1075.839844 656.914062 L 914.199219 936.867188 L 753.714844 936.867188 Z M 954.917969 439.925781 C 930.101562 425.589844 921.582031 393.839844 935.921875 369.023438 C 950.257812 344.210938 982.003906 335.691406 1006.820312 350.027344 C 1013.007812 353.589844 1018.179688 358.253906 1022.234375 363.601562 C 1056.527344 370.492188 1091.117188 353.730469 1106.941406 322.785156 L 1089.726562 292.972656 C 1072.707031 263.480469 1043.464844 246.617188 1009.425781 246.617188 L 681.074219 246.617188 C 647.035156 246.617188 617.792969 263.5 600.773438 292.972656 L 229.019531 936.847656 L 414.710938 936.847656 L 285.445312 1160.75 L 392.402344 1160.75 C 426.441406 1160.75 455.683594 1143.867188 472.703125 1114.390625 L 575.195312 936.847656 L 753.714844 936.847656 L 659.449219 1100.132812 L 766.40625 1100.132812 C 800.445312 1100.132812 829.6875 1083.25 846.707031 1053.773438 L 914.199219 936.847656 L 1099.871094 936.847656 L 1253.910156 670.074219 C 1270.929688 640.578125 1270.929688 606.832031 1253.910156 577.335938 L 1139.179688 378.621094 C 1154.613281 361.464844 1165.1875 340.9375 1170.417969 319.140625 C 1176.820312 292.445312 1175.214844 263.890625 1164.699219 237.253906 C 1154.140625 210.5 1135.789062 188.484375 1112.914062 173.386719 C 1090.039062 158.285156 1062.597656 150.058594 1033.867188 150.84375 C 1024.5625 151.097656 1017.238281 158.851562 1017.492188 168.136719 C 1017.75 177.4375 1025.503906 184.765625 1034.789062 184.507812 C 1056.390625 183.902344 1077.035156 190.109375 1094.289062 201.511719 C 1111.523438 212.890625 1125.332031 229.4375 1133.265625 249.535156 C 1141.234375 269.726562 1142.46875 291.289062 1137.671875 311.363281 C 1134.597656 324.214844 1129.035156 336.492188 1121.160156 347.421875 C 1116.753906 353.550781 1111.621094 359.25 1105.785156 364.402344 C 1077.289062 389.609375 1037.355469 396.679688 1002.414062 383.96875 C 1000.355469 379.953125 997.164062 376.449219 992.972656 374.039062 C 981.398438 367.359375 966.589844 371.316406 959.914062 382.890625 C 953.234375 394.464844 957.191406 409.273438 968.765625 415.953125 C 976.363281 420.339844 985.355469 420.144531 992.503906 416.207031 C 1002.921875 419.867188 1013.617188 422.199219 1024.386719 423.257812 C 1017.925781 433.226562 1008.523438 440.296875 998.007812 443.980469 C 984.238281 448.777344 968.53125 447.777344 954.917969 439.925781 Z M 954.917969 439.925781 " fill-opacity="1" fill-rule="evenodd"/></g><g transform="matrix(1, 0, 0, 1, 110, 662)"><g clip-path="url(#0e0259461f)"><g fill="#ffffff" fill-opacity="1"><g transform="translate(3.598851, 509.959227)"><g><path d="M 173.015625 189.359375 C 150.585938 189.359375 129.203125 186.796875 108.859375 181.671875 C 88.515625 176.546875 70.570312 168.613281 55.03125 157.875 C 39.488281 147.144531 27.234375 133.609375 18.265625 117.265625 C 9.296875 100.921875 4.8125 81.695312 4.8125 59.59375 C 4.8125 30.113281 11.695312 2.714844 25.46875 -22.59375 C 39.25 -47.90625 59.035156 -70.25 84.828125 -89.625 C 110.617188 -109.007812 141.296875 -124.632812 176.859375 -136.5 C 161.160156 -141.625 144.738281 -146.828125 127.59375 -152.109375 C 110.457031 -157.398438 90.515625 -160.046875 67.765625 -160.046875 C 58.148438 -160.046875 49.738281 -159.242188 42.53125 -157.640625 C 35.320312 -156.035156 28.515625 -154.429688 22.109375 -152.828125 L 15.375 -188.40625 C 23.707031 -191.601562 33.078125 -194.320312 43.484375 -196.5625 C 53.898438 -198.8125 64.394531 -199.9375 74.96875 -199.9375 C 89.707031 -199.9375 102.84375 -198.570312 114.375 -195.84375 C 125.914062 -193.125 136.890625 -189.84375 147.296875 -186 C 157.710938 -182.15625 168.6875 -178.226562 180.21875 -174.21875 C 191.757812 -170.21875 204.660156 -166.851562 218.921875 -164.125 C 233.179688 -161.40625 250.082031 -159.882812 269.625 -159.5625 L 273.953125 -159.5625 L 274.90625 -120.15625 C 256.320312 -120.15625 236.535156 -117.671875 215.546875 -112.703125 C 194.566406 -107.734375 173.984375 -100.363281 153.796875 -90.59375 C 133.609375 -80.820312 115.265625 -68.882812 98.765625 -54.78125 C 82.265625 -40.6875 69.046875 -24.507812 59.109375 -6.25 C 49.179688 12.007812 44.21875 32.359375 44.21875 54.796875 C 44.21875 77.222656 50.304688 95.40625 62.484375 109.34375 C 74.660156 123.28125 90.921875 133.453125 111.265625 139.859375 C 131.609375 146.265625 153.796875 149.46875 177.828125 149.46875 C 209.546875 149.46875 241.742188 143.0625 274.421875 130.25 L 287.890625 162.921875 C 268.984375 171.898438 249.753906 178.550781 230.203125 182.875 C 210.660156 187.195312 191.597656 189.359375 173.015625 189.359375 Z M 168.21875 54.796875 C 161.488281 54.796875 155.800781 52.472656 151.15625 47.828125 C 146.507812 43.179688 144.1875 37.648438 144.1875 31.234375 C 144.1875 24.828125 146.507812 19.21875 151.15625 14.40625 C 155.800781 9.601562 161.488281 7.203125 168.21875 7.203125 C 174.625 7.203125 180.148438 9.601562 184.796875 14.40625 C 189.441406 19.21875 191.765625 24.828125 191.765625 31.234375 C 191.765625 37.648438 189.441406 43.179688 184.796875 47.828125 C 180.148438 52.472656 174.625 54.796875 168.21875 54.796875 Z M 168.21875 54.796875 "/></g></g></g><g fill="#ffffff" fill-opacity="1"><g transform="translate(310.704243, 509.959227)"><g><path d="M 27.875 110.546875 L 19.21875 71.125 C 39.082031 68.5625 57.265625 64.796875 73.765625 59.828125 C 90.273438 54.867188 104.457031 47.898438 116.3125 38.921875 C 128.164062 29.953125 136.972656 17.78125 142.734375 2.40625 L 111.984375 2.40625 C 97.566406 2.40625 84.1875 0.402344 71.84375 -3.59375 C 59.507812 -7.601562 49.578125 -14.09375 42.046875 -23.0625 C 34.523438 -32.039062 30.765625 -43.738281 30.765625 -58.15625 C 30.765625 -75.78125 34.285156 -92.519531 41.328125 -108.375 C 48.378906 -124.238281 57.992188 -137.132812 70.171875 -147.0625 C 82.347656 -157 96.125 -161.96875 111.5 -161.96875 C 133.601562 -161.96875 151.945312 -152.273438 166.53125 -132.890625 C 181.113281 -113.503906 188.40625 -83.785156 188.40625 -43.734375 C 188.40625 -41.492188 188.40625 -39.25 188.40625 -37 L 231.65625 -37 C 238.382812 -37 243.269531 -35.15625 246.3125 -31.46875 C 249.351562 -27.789062 250.875 -23.390625 250.875 -18.265625 C 250.875 -13.140625 248.628906 -8.410156 244.140625 -4.078125 C 239.660156 0.242188 233.894531 2.40625 226.84375 2.40625 L 182.625 2.40625 C 166.289062 64.5625 114.707031 100.609375 27.875 110.546875 Z M 130.25 -37 L 150.4375 -37 C 150.75 -40.207031 150.90625 -43.414062 150.90625 -46.625 C 150.90625 -68.40625 146.898438 -86.503906 138.890625 -100.921875 C 130.878906 -115.347656 120.46875 -122.5625 107.65625 -122.5625 C 100.925781 -122.5625 94.597656 -119.992188 88.671875 -114.859375 C 82.742188 -109.734375 78.015625 -102.84375 74.484375 -94.1875 C 70.960938 -85.539062 69.203125 -76.09375 69.203125 -65.84375 C 69.203125 -54.625 74.25 -47.007812 84.34375 -43 C 94.4375 -39 109.738281 -37 130.25 -37 Z M 130.25 -37 "/></g></g></g><g fill="#ffffff" fill-opacity="1"><g transform="translate(537.548917, 509.959227)"><g><path d="M 0 2.40625 L 4.8125 -37 C 20.832031 -37 33.328125 -38.203125 42.296875 -40.609375 C 51.265625 -43.015625 58.070312 -47.660156 62.71875 -54.546875 C 67.363281 -61.429688 71.128906 -71.441406 74.015625 -84.578125 C 76.898438 -97.722656 80.425781 -114.867188 84.59375 -136.015625 L 122.078125 -128.796875 C 120.148438 -120.148438 117.984375 -110.21875 115.578125 -99 C 113.179688 -87.789062 111.984375 -78.34375 111.984375 -70.65625 C 111.984375 -65.84375 112.300781 -61.351562 112.9375 -57.1875 C 113.582031 -53.019531 115.988281 -49.492188 120.15625 -46.609375 C 124.320312 -43.734375 131.367188 -41.410156 141.296875 -39.640625 C 151.234375 -37.878906 165.492188 -37 184.078125 -37 C 190.804688 -37 195.691406 -35.15625 198.734375 -31.46875 C 201.773438 -27.789062 203.296875 -23.390625 203.296875 -18.265625 C 203.296875 -13.140625 201.050781 -8.410156 196.5625 -4.078125 C 192.082031 0.242188 186.316406 2.40625 179.265625 2.40625 C 158.441406 2.40625 142.179688 1.199219 130.484375 -1.203125 C 118.785156 -3.609375 110.132812 -7.132812 104.53125 -11.78125 C 98.925781 -16.425781 94.84375 -22.269531 92.28125 -29.3125 C 82.988281 -16.175781 71.53125 -7.601562 57.90625 -3.59375 C 44.289062 0.402344 24.988281 2.40625 0 2.40625 Z M 128.328125 -185.515625 C 121.597656 -185.515625 115.910156 -187.835938 111.265625 -192.484375 C 106.617188 -197.128906 104.296875 -202.65625 104.296875 -209.0625 C 104.296875 -215.46875 106.617188 -221.070312 111.265625 -225.875 C 115.910156 -230.6875 121.597656 -233.09375 128.328125 -233.09375 C 134.734375 -233.09375 140.257812 -230.6875 144.90625 -225.875 C 149.550781 -221.070312 151.875 -215.46875 151.875 -209.0625 C 151.875 -202.65625 149.550781 -197.128906 144.90625 -192.484375 C 140.257812 -187.835938 134.734375 -185.515625 128.328125 -185.515625 Z M 62.484375 -185.515625 C 55.753906 -185.515625 50.066406 -187.835938 45.421875 -192.484375 C 40.773438 -197.128906 38.453125 -202.65625 38.453125 -209.0625 C 38.453125 -215.46875 40.773438 -221.070312 45.421875 -225.875 C 50.066406 -230.6875 55.753906 -233.09375 62.484375 -233.09375 C 68.890625 -233.09375 74.414062 -230.6875 79.0625 -225.875 C 83.707031 -221.070312 86.03125 -215.46875 86.03125 -209.0625 C 86.03125 -202.65625 83.707031 -197.128906 79.0625 -192.484375 C 74.414062 -187.835938 68.890625 -185.515625 62.484375 -185.515625 Z M 62.484375 -185.515625 "/></g></g></g><g fill="#ffffff" fill-opacity="1"><g transform="translate(716.81387, 509.959227)"><g><path d="M 0 2.40625 L 4.8125 -37 C 18.257812 -37 28.828125 -38.203125 36.515625 -40.609375 C 44.210938 -43.015625 50.0625 -47.660156 54.0625 -54.546875 C 58.070312 -61.429688 61.519531 -71.441406 64.40625 -84.578125 C 67.289062 -97.722656 70.8125 -114.867188 74.96875 -136.015625 L 112.46875 -128.796875 C 110.539062 -120.148438 108.375 -110.21875 105.96875 -99 C 103.570312 -87.789062 102.375 -78.34375 102.375 -70.65625 C 102.375 -64.238281 103.8125 -58.46875 106.6875 -53.34375 C 109.570312 -48.21875 115.738281 -44.210938 125.1875 -41.328125 C 134.644531 -38.441406 149.46875 -37 169.65625 -37 C 176.382812 -37 181.269531 -35.15625 184.3125 -31.46875 C 187.351562 -27.789062 188.875 -23.390625 188.875 -18.265625 C 188.875 -13.140625 186.628906 -8.410156 182.140625 -4.078125 C 177.660156 0.242188 171.894531 2.40625 164.84375 2.40625 C 139.53125 2.40625 120.785156 -0.316406 108.609375 -5.765625 C 96.441406 -11.210938 88.113281 -19.382812 83.625 -30.28125 C 74.007812 -16.820312 62.953125 -8.007812 50.453125 -3.84375 C 37.960938 0.320312 21.144531 2.40625 0 2.40625 Z M 89.875 -185.515625 C 83.144531 -185.515625 77.457031 -187.835938 72.8125 -192.484375 C 68.164062 -197.128906 65.84375 -202.65625 65.84375 -209.0625 C 65.84375 -215.46875 68.164062 -221.070312 72.8125 -225.875 C 77.457031 -230.6875 83.144531 -233.09375 89.875 -233.09375 C 96.28125 -233.09375 101.804688 -230.6875 106.453125 -225.875 C 111.097656 -221.070312 113.421875 -215.46875 113.421875 -209.0625 C 113.421875 -202.65625 111.097656 -197.128906 106.453125 -192.484375 C 101.804688 -187.835938 96.28125 -185.515625 89.875 -185.515625 Z M 89.875 -185.515625 "/></g></g></g><g fill="#ffffff" fill-opacity="1"><g transform="translate(881.660651, 509.959227)"><g><path d="M 0 2.40625 L 4.8125 -37 C 13.78125 -37 21.304688 -38.921875 27.390625 -42.765625 C 33.484375 -46.617188 39.410156 -52.945312 45.171875 -61.75 C 50.941406 -70.5625 57.191406 -82.660156 63.921875 -98.046875 C 73.210938 -118.546875 82.421875 -134.082031 91.546875 -144.65625 C 100.679688 -155.238281 109.8125 -162.453125 118.9375 -166.296875 C 128.070312 -170.140625 137.128906 -172.0625 146.109375 -172.0625 C 157.003906 -172.0625 167.097656 -169.253906 176.390625 -163.640625 C 185.679688 -158.035156 193.847656 -150.585938 200.890625 -141.296875 C 207.941406 -132.003906 213.46875 -121.832031 217.46875 -110.78125 C 221.476562 -99.726562 223.484375 -88.753906 223.484375 -77.859375 C 223.484375 -58.628906 220.117188 -43.328125 213.390625 -31.953125 C 206.660156 -20.585938 198.085938 -12.421875 187.671875 -7.453125 C 177.265625 -2.484375 166.453125 0 155.234375 0 C 145.941406 0 134.164062 -1.597656 119.90625 -4.796875 C 105.65625 -8.003906 87.796875 -16.335938 66.328125 -29.796875 C 56.066406 -15.054688 45.8125 -6.003906 35.5625 -2.640625 C 25.3125 0.722656 13.457031 2.40625 0 2.40625 Z M 89.875 -72.578125 C 87.945312 -68.410156 86.1875 -64.40625 84.59375 -60.5625 C 98.363281 -52.550781 110.9375 -47.019531 122.3125 -43.96875 C 133.6875 -40.925781 143.21875 -39.40625 150.90625 -39.40625 C 164.6875 -39.40625 174.457031 -42.445312 180.21875 -48.53125 C 185.988281 -54.625 188.875 -62.640625 188.875 -72.578125 C 188.875 -81.867188 186.628906 -91.160156 182.140625 -100.453125 C 177.660156 -109.742188 171.972656 -117.429688 165.078125 -123.515625 C 158.191406 -129.597656 150.90625 -132.640625 143.21875 -132.640625 C 137.457031 -132.640625 131.851562 -131.035156 126.40625 -127.828125 C 120.957031 -124.628906 115.347656 -118.703125 109.578125 -110.046875 C 103.804688 -101.398438 97.238281 -88.910156 89.875 -72.578125 Z M 89.875 -72.578125 "/></g></g></g></g></g></svg>