<svg xmlns="http://www.w3.org/2000/svg" xmlns:xlink="http://www.w3.org/1999/xlink" width="2000" zoomAndPan="magnify" viewBox="0 0 1500 1499.999933" height="2000" preserveAspectRatio="xMidYMid meet" version="1.0"><defs><g/><clipPath id="925545792d"><path d="M 349 228 L 1253 228 L 1253 902.722656 L 349 902.722656 Z M 349 228 " clip-rule="nonzero"/></clipPath><clipPath id="919a6d8fba"><rect x="0" width="994" y="0" height="617"/></clipPath></defs><g clip-path="url(#925545792d)"><path fill="#ffffff" d="M 510.996094 912.640625 L 593.441406 769.824219 C 608.253906 744.152344 633.707031 729.472656 663.335938 729.472656 L 756.4375 729.472656 L 650.6875 912.640625 Z M 806.082031 912.640625 L 923.476562 709.320312 C 938.292969 683.648438 963.746094 668.96875 993.375 668.96875 L 1086.476562 668.96875 L 945.777344 912.65625 L 806.082031 912.65625 Z M 981.21875 480.089844 C 959.621094 467.609375 952.203125 439.976562 964.683594 418.375 C 977.164062 396.773438 1004.796875 389.359375 1026.398438 401.839844 C 1031.785156 404.941406 1036.285156 409 1039.816406 413.652344 C 1069.667969 419.652344 1099.773438 405.0625 1113.550781 378.125 L 1098.5625 352.175781 C 1083.75 326.503906 1058.296875 311.824219 1028.664062 311.824219 L 742.851562 311.824219 C 713.222656 311.824219 687.769531 326.519531 672.953125 352.175781 L 349.359375 912.640625 L 510.996094 912.640625 L 398.476562 1107.535156 L 491.578125 1107.535156 C 521.207031 1107.535156 546.660156 1092.839844 561.472656 1067.183594 L 650.6875 912.640625 L 806.082031 912.640625 L 724.03125 1054.769531 L 817.128906 1054.769531 C 846.761719 1054.769531 872.214844 1040.074219 887.027344 1014.417969 L 945.777344 912.640625 L 1107.394531 912.640625 L 1241.480469 680.425781 C 1256.292969 654.75 1256.292969 625.375 1241.480469 599.699219 L 1141.609375 426.730469 C 1155.042969 411.792969 1164.25 393.929688 1168.800781 374.953125 C 1174.378906 351.714844 1172.980469 326.859375 1163.824219 303.675781 C 1154.636719 280.386719 1138.660156 261.222656 1118.75 248.078125 C 1098.835938 234.9375 1074.953125 227.777344 1049.941406 228.457031 C 1041.84375 228.679688 1035.46875 235.429688 1035.6875 243.511719 C 1035.910156 251.609375 1042.664062 257.984375 1050.742188 257.761719 C 1069.546875 257.234375 1087.515625 262.640625 1102.535156 272.5625 C 1117.539062 282.464844 1129.558594 296.871094 1136.460938 314.363281 C 1143.402344 331.941406 1144.472656 350.710938 1140.296875 368.183594 C 1137.621094 379.367188 1132.78125 390.058594 1125.925781 399.570312 C 1122.089844 404.90625 1117.625 409.867188 1112.542969 414.351562 C 1087.738281 436.292969 1052.976562 442.449219 1022.5625 431.382812 C 1020.773438 427.886719 1017.992188 424.835938 1014.34375 422.738281 C 1004.269531 416.925781 991.382812 420.371094 985.566406 430.445312 C 979.753906 440.519531 983.199219 453.410156 993.273438 459.222656 C 999.886719 463.042969 1007.714844 462.871094 1013.9375 459.445312 C 1023.003906 462.632812 1032.3125 464.660156 1041.691406 465.582031 C 1036.0625 474.257812 1027.882812 480.414062 1018.726562 483.617188 C 1006.742188 487.796875 993.070312 486.925781 981.21875 480.089844 Z M 981.21875 480.089844 " fill-opacity="1" fill-rule="evenodd"/></g><g transform="matrix(1, 0, 0, 1, 273, 714)"><g clip-path="url(#919a6d8fba)"><g fill="#ffffff" fill-opacity="1"><g transform="translate(2.955513, 444.163346)"><g><path d="M 150.609375 164.828125 C 131.085938 164.828125 112.46875 162.597656 94.75 158.140625 C 77.039062 153.679688 61.421875 146.78125 47.890625 137.4375 C 34.367188 128.09375 23.703125 116.304688 15.890625 102.078125 C 8.085938 87.859375 4.1875 71.125 4.1875 51.875 C 4.1875 26.21875 10.179688 2.371094 22.171875 -19.65625 C 34.160156 -41.695312 51.378906 -61.148438 73.828125 -78.015625 C 96.285156 -94.890625 122.992188 -108.488281 153.953125 -118.8125 C 140.285156 -123.269531 125.988281 -127.800781 111.0625 -132.40625 C 96.144531 -137.007812 78.785156 -139.3125 58.984375 -139.3125 C 50.617188 -139.3125 43.296875 -138.613281 37.015625 -137.21875 C 30.742188 -135.820312 24.820312 -134.425781 19.25 -133.03125 L 13.390625 -164 C 20.640625 -166.789062 28.796875 -169.160156 37.859375 -171.109375 C 46.921875 -173.054688 56.054688 -174.03125 65.265625 -174.03125 C 78.097656 -174.03125 89.53125 -172.84375 99.5625 -170.46875 C 109.601562 -168.101562 119.15625 -165.25 128.21875 -161.90625 C 137.289062 -158.5625 146.847656 -155.144531 156.890625 -151.65625 C 166.929688 -148.164062 178.15625 -145.234375 190.5625 -142.859375 C 202.96875 -140.492188 217.679688 -139.171875 234.703125 -138.890625 L 238.46875 -138.890625 L 239.296875 -104.59375 C 223.117188 -104.59375 205.894531 -102.429688 187.625 -98.109375 C 169.363281 -93.785156 151.445312 -87.367188 133.875 -78.859375 C 116.300781 -70.347656 100.332031 -59.957031 85.96875 -47.6875 C 71.601562 -35.414062 60.097656 -21.332031 51.453125 -5.4375 C 42.804688 10.457031 38.484375 28.164062 38.484375 47.6875 C 38.484375 67.21875 43.78125 83.046875 54.375 95.171875 C 64.976562 107.304688 79.132812 116.160156 96.84375 121.734375 C 114.5625 127.316406 133.878906 130.109375 154.796875 130.109375 C 182.398438 130.109375 210.429688 124.53125 238.890625 113.375 L 250.59375 141.828125 C 234.132812 149.628906 217.398438 155.410156 200.390625 159.171875 C 183.378906 162.941406 166.785156 164.828125 150.609375 164.828125 Z M 146.421875 47.6875 C 140.566406 47.6875 135.613281 45.664062 131.5625 41.625 C 127.519531 37.582031 125.5 32.769531 125.5 27.1875 C 125.5 21.613281 127.519531 16.734375 131.5625 12.546875 C 135.613281 8.359375 140.566406 6.265625 146.421875 6.265625 C 151.992188 6.265625 156.800781 8.359375 160.84375 12.546875 C 164.894531 16.734375 166.921875 21.613281 166.921875 27.1875 C 166.921875 32.769531 164.894531 37.582031 160.84375 41.625 C 156.800781 45.664062 151.992188 47.6875 146.421875 47.6875 Z M 146.421875 47.6875 "/></g></g></g><g fill="#ffffff" fill-opacity="1"><g transform="translate(270.278235, 444.163346)"><g><path d="M 24.265625 96.21875 L 16.734375 61.921875 C 34.023438 59.679688 49.851562 56.398438 64.21875 52.078125 C 78.582031 47.753906 90.921875 41.6875 101.234375 33.875 C 111.554688 26.070312 119.226562 15.476562 124.25 2.09375 L 97.484375 2.09375 C 84.929688 2.09375 73.285156 0.351562 62.546875 -3.125 C 51.804688 -6.613281 43.160156 -12.265625 36.609375 -20.078125 C 30.054688 -27.890625 26.78125 -38.070312 26.78125 -50.625 C 26.78125 -65.957031 29.847656 -80.523438 35.984375 -94.328125 C 42.117188 -108.140625 50.484375 -119.367188 61.078125 -128.015625 C 71.679688 -136.660156 83.675781 -140.984375 97.0625 -140.984375 C 116.300781 -140.984375 132.265625 -132.546875 144.953125 -115.671875 C 157.648438 -98.796875 164 -72.929688 164 -38.078125 C 164 -36.117188 164 -34.164062 164 -32.21875 L 201.65625 -32.21875 C 207.507812 -32.21875 211.757812 -30.613281 214.40625 -27.40625 C 217.0625 -24.195312 218.390625 -20.359375 218.390625 -15.890625 C 218.390625 -11.429688 216.4375 -7.316406 212.53125 -3.546875 C 208.625 0.210938 203.601562 2.09375 197.46875 2.09375 L 158.96875 2.09375 C 144.75 56.195312 99.847656 87.570312 24.265625 96.21875 Z M 113.375 -32.21875 L 130.953125 -32.21875 C 131.222656 -35 131.359375 -37.785156 131.359375 -40.578125 C 131.359375 -59.546875 127.875 -75.304688 120.90625 -87.859375 C 113.9375 -100.410156 104.875 -106.6875 93.71875 -106.6875 C 87.851562 -106.6875 82.34375 -104.453125 77.1875 -99.984375 C 72.03125 -95.523438 67.914062 -89.53125 64.84375 -82 C 61.78125 -74.46875 60.25 -66.238281 60.25 -57.3125 C 60.25 -47.550781 64.640625 -40.925781 73.421875 -37.4375 C 82.203125 -33.957031 95.519531 -32.21875 113.375 -32.21875 Z M 113.375 -32.21875 "/></g></g></g><g fill="#ffffff" fill-opacity="1"><g transform="translate(467.737274, 444.163346)"><g><path d="M 0 2.09375 L 4.1875 -32.21875 C 18.125 -32.21875 29 -33.257812 36.8125 -35.34375 C 44.625 -37.4375 50.550781 -41.484375 54.59375 -47.484375 C 58.632812 -53.484375 61.910156 -62.195312 64.421875 -73.625 C 66.929688 -85.0625 70 -99.984375 73.625 -118.390625 L 106.265625 -112.125 C 104.585938 -104.59375 102.703125 -95.945312 100.609375 -86.1875 C 98.523438 -76.425781 97.484375 -68.195312 97.484375 -61.5 C 97.484375 -57.3125 97.757812 -53.40625 98.3125 -49.78125 C 98.875 -46.15625 100.96875 -43.085938 104.59375 -40.578125 C 108.21875 -38.066406 114.351562 -36.046875 123 -34.515625 C 131.644531 -32.984375 144.054688 -32.21875 160.234375 -32.21875 C 166.085938 -32.21875 170.335938 -30.613281 172.984375 -27.40625 C 175.640625 -24.195312 176.96875 -20.359375 176.96875 -15.890625 C 176.96875 -11.429688 175.015625 -7.316406 171.109375 -3.546875 C 167.203125 0.210938 162.179688 2.09375 156.046875 2.09375 C 137.921875 2.09375 123.765625 1.042969 113.578125 -1.046875 C 103.398438 -3.140625 95.867188 -6.207031 90.984375 -10.25 C 86.109375 -14.289062 82.554688 -19.378906 80.328125 -25.515625 C 72.234375 -14.078125 62.257812 -6.613281 50.40625 -3.125 C 38.550781 0.351562 21.75 2.09375 0 2.09375 Z M 111.703125 -161.5 C 105.847656 -161.5 100.894531 -163.519531 96.84375 -167.5625 C 92.800781 -171.601562 90.78125 -176.414062 90.78125 -182 C 90.78125 -187.570312 92.800781 -192.445312 96.84375 -196.625 C 100.894531 -200.8125 105.847656 -202.90625 111.703125 -202.90625 C 117.285156 -202.90625 122.097656 -200.8125 126.140625 -196.625 C 130.179688 -192.445312 132.203125 -187.570312 132.203125 -182 C 132.203125 -176.414062 130.179688 -171.601562 126.140625 -167.5625 C 122.097656 -163.519531 117.285156 -161.5 111.703125 -161.5 Z M 54.390625 -161.5 C 48.535156 -161.5 43.582031 -163.519531 39.53125 -167.5625 C 35.488281 -171.601562 33.46875 -176.414062 33.46875 -182 C 33.46875 -187.570312 35.488281 -192.445312 39.53125 -196.625 C 43.582031 -200.8125 48.535156 -202.90625 54.390625 -202.90625 C 59.960938 -202.90625 64.769531 -200.8125 68.8125 -196.625 C 72.863281 -192.445312 74.890625 -187.570312 74.890625 -182 C 74.890625 -176.414062 72.863281 -171.601562 68.8125 -167.5625 C 64.769531 -163.519531 59.960938 -161.5 54.390625 -161.5 Z M 54.390625 -161.5 "/></g></g></g><g fill="#ffffff" fill-opacity="1"><g transform="translate(623.780106, 444.163346)"><g><path d="M 0 2.09375 L 4.1875 -32.21875 C 15.894531 -32.21875 25.09375 -33.257812 31.78125 -35.34375 C 38.476562 -37.4375 43.570312 -41.484375 47.0625 -47.484375 C 50.550781 -53.484375 53.550781 -62.195312 56.0625 -73.625 C 58.570312 -85.0625 61.640625 -99.984375 65.265625 -118.390625 L 97.890625 -112.125 C 96.222656 -104.59375 94.34375 -95.945312 92.25 -86.1875 C 90.15625 -76.425781 89.109375 -68.195312 89.109375 -61.5 C 89.109375 -55.914062 90.363281 -50.894531 92.875 -46.4375 C 95.382812 -41.976562 100.753906 -38.492188 108.984375 -35.984375 C 117.210938 -33.472656 130.113281 -32.21875 147.6875 -32.21875 C 153.539062 -32.21875 157.789062 -30.613281 160.4375 -27.40625 C 163.09375 -24.195312 164.421875 -20.359375 164.421875 -15.890625 C 164.421875 -11.429688 162.46875 -7.316406 158.5625 -3.546875 C 154.65625 0.210938 149.632812 2.09375 143.5 2.09375 C 121.46875 2.09375 105.148438 -0.273438 94.546875 -5.015625 C 83.953125 -9.753906 76.703125 -16.867188 72.796875 -26.359375 C 64.429688 -14.640625 54.804688 -6.96875 43.921875 -3.34375 C 33.046875 0.277344 18.40625 2.09375 0 2.09375 Z M 78.234375 -161.5 C 72.378906 -161.5 67.425781 -163.519531 63.375 -167.5625 C 59.332031 -171.601562 57.3125 -176.414062 57.3125 -182 C 57.3125 -187.570312 59.332031 -192.445312 63.375 -196.625 C 67.425781 -200.8125 72.378906 -202.90625 78.234375 -202.90625 C 83.804688 -202.90625 88.613281 -200.8125 92.65625 -196.625 C 96.707031 -192.445312 98.734375 -187.570312 98.734375 -182 C 98.734375 -176.414062 96.707031 -171.601562 92.65625 -167.5625 C 88.613281 -163.519531 83.804688 -161.5 78.234375 -161.5 Z M 78.234375 -161.5 "/></g></g></g><g fill="#ffffff" fill-opacity="1"><g transform="translate(767.272508, 444.163346)"><g><path d="M 0 2.09375 L 4.1875 -32.21875 C 11.988281 -32.21875 18.539062 -33.890625 23.84375 -37.234375 C 29.144531 -40.578125 34.304688 -46.082031 39.328125 -53.75 C 44.347656 -61.425781 49.785156 -71.957031 55.640625 -85.34375 C 63.734375 -103.195312 71.753906 -116.722656 79.703125 -125.921875 C 87.648438 -135.128906 95.597656 -141.40625 103.546875 -144.75 C 111.492188 -148.09375 119.375 -149.765625 127.1875 -149.765625 C 136.664062 -149.765625 145.445312 -147.320312 153.53125 -142.4375 C 161.625 -137.5625 168.738281 -131.078125 174.875 -122.984375 C 181.007812 -114.898438 185.816406 -106.046875 189.296875 -96.421875 C 192.785156 -86.804688 194.53125 -77.257812 194.53125 -67.78125 C 194.53125 -51.039062 191.601562 -37.71875 185.75 -27.8125 C 179.894531 -17.914062 172.429688 -10.804688 163.359375 -6.484375 C 154.296875 -2.160156 144.882812 0 135.125 0 C 127.039062 0 116.789062 -1.390625 104.375 -4.171875 C 91.96875 -6.960938 76.421875 -14.21875 57.734375 -25.9375 C 48.804688 -13.101562 39.878906 -5.222656 30.953125 -2.296875 C 22.035156 0.628906 11.71875 2.09375 0 2.09375 Z M 78.234375 -63.171875 C 76.554688 -59.546875 75.019531 -56.0625 73.625 -52.71875 C 85.625 -45.738281 96.570312 -40.925781 106.46875 -38.28125 C 116.375 -35.632812 124.671875 -34.3125 131.359375 -34.3125 C 143.359375 -34.3125 151.867188 -36.957031 156.890625 -42.25 C 161.910156 -47.550781 164.421875 -54.523438 164.421875 -63.171875 C 164.421875 -71.253906 162.46875 -79.335938 158.5625 -87.421875 C 154.65625 -95.515625 149.703125 -102.210938 143.703125 -107.515625 C 137.710938 -112.816406 131.367188 -115.46875 124.671875 -115.46875 C 119.648438 -115.46875 114.769531 -114.070312 110.03125 -111.28125 C 105.289062 -108.488281 100.410156 -103.328125 95.390625 -95.796875 C 90.367188 -88.273438 84.648438 -77.398438 78.234375 -63.171875 Z M 78.234375 -63.171875 "/></g></g></g></g></g></svg>